<?xml version="1.0" encoding="UTF-8" standalone="no"?>
<svg
   xmlns:dc="http://purl.org/dc/elements/1.1/"
   xmlns:cc="http://creativecommons.org/ns#"
   xmlns:rdf="http://www.w3.org/1999/02/22-rdf-syntax-ns#"
   xmlns:svg="http://www.w3.org/2000/svg"
   xmlns="http://www.w3.org/2000/svg"
   xmlns:sodipodi="http://sodipodi.sourceforge.net/DTD/sodipodi-0.dtd"
   xmlns:inkscape="http://www.inkscape.org/namespaces/inkscape"
   width="223.999"
   height="105.998"
   id="svg2"
   version="1.1"
   inkscape:version="0.48.4 r9939"
   sodipodi:docname="tty.svg">
  <metadata
     id="metadata10">
    <rdf:RDF>
      <cc:Work
         rdf:about="">
        <dc:format>image/svg+xml</dc:format>
        <dc:type
           rdf:resource="http://purl.org/dc/dcmitype/StillImage" />
        <dc:title></dc:title>
      </cc:Work>
    </rdf:RDF>
  </metadata>
  <defs
     id="defs8" />
  <sodipodi:namedview
     pagecolor="#ffffff"
     bordercolor="#666666"
     borderopacity="1"
     objecttolerance="10"
     gridtolerance="10"
     guidetolerance="10"
     inkscape:pageopacity="0"
     inkscape:pageshadow="2"
     inkscape:window-width="640"
     inkscape:window-height="480"
     id="namedview6"
     showgrid="false"
     inkscape:zoom="1.7009005"
     inkscape:cx="108.91076"
     inkscape:cy="67.284712"
     inkscape:window-x="240"
     inkscape:window-y="57"
     inkscape:window-maximized="0"
     inkscape:current-layer="svg2" />
  <path
     d="M209.475,86.445c0,1.535-0.384,2.965-1.151,4.291c-0.767,1.324-1.813,2.369-3.138,3.133 c-1.324,0.764-2.754,1.146-4.287,1.146c-1.527,0-2.952-0.383-4.277-1.146c-1.324-0.764-2.37-1.809-3.137-3.133 c-0.768-1.326-1.15-2.756-1.15-4.291c0-1.527,0.383-2.957,1.15-4.285c0.767-1.33,1.813-2.375,3.137-3.141 c1.325-0.764,2.75-1.145,4.277-1.145c1.533,0,2.963,0.381,4.287,1.145c1.325,0.766,2.371,1.811,3.138,3.141 C209.091,83.488,209.475,84.918,209.475,86.445z M207.818,86.445c0-1.908-0.676-3.537-2.026-4.889 c-1.351-1.35-2.98-2.025-4.888-2.025c-1.908,0-3.538,0.676-4.889,2.025c-1.351,1.352-2.025,2.98-2.025,4.889  s0.675,3.537,2.025,4.889c1.351,1.35,2.98,2.025,4.889,2.025c1.907,0,3.537-0.676,4.888-2.025 C207.143,89.982,207.818,88.354,207.818,86.445z M197.021,81.859h4.093c1.159,0,1.998,0.234,2.518,0.701 c0.52,0.469,0.78,1.098,0.78,1.883c0,0.615-0.199,1.146-0.598,1.596c-0.397,0.451-1.024,0.775-1.881,0.979 c0.354,0.135,0.611,0.277,0.777,0.428c0.232,0.209,0.476,0.52,0.73,0.932c0.016,0.031,0.511,0.916,1.486,2.654h-2.703 c-0.87-1.746-1.454-2.791-1.752-3.131c-0.297-0.342-0.594-0.512-0.892-0.512c-0.067,0-0.16,0.01-0.278,0.033v3.609h-2.281V81.859z M199.303,85.75h0.98c0.654,0,1.115-0.107,1.383-0.32c0.268-0.215,0.402-0.49,0.402-0.828s-0.129-0.613-0.385-0.828 c-0.257-0.213-0.693-0.32-1.311-0.32h-1.07V85.75z M112.001,8.166C55.925,8.166,11.999,27.859,11.999,53c0,25.14,43.926,44.833,100.002,44.833 C168.075,97.834,212,78.141,212,53C212,27.859,168.075,8.166,112.001,8.166z M206.797,50.5H186.4 c-1.005-11.277-8.796-21.707-22.207-29.591c-1.133-0.666-2.307-1.299-3.498-1.916C186.576,25.645,204.74,37.321,206.797,50.5z  M75.259,53c0-20.259,16.482-36.741,36.742-36.741c20.257,0,36.738,16.482,36.738,36.741c0,20.257-16.481,36.738-36.738,36.738 C91.741,89.738,75.259,73.258,75.259,53z M70.341,50.5H42.631c1.941-17.858,24.501-32.557,54.172-36.365 C82.021,19.937,71.325,33.928,70.341,50.5z M70.341,55.5c0.984,16.572,11.682,30.564,26.466,36.363 C67.135,88.057,44.573,73.357,42.631,55.5H70.341z M153.658,55.5h27.71c-1.941,17.857-24.503,32.557-54.175,36.363 C141.977,86.064,152.673,72.072,153.658,55.5z M153.658,50.5c-0.984-16.574-11.682-30.566-26.465-36.366 c12.979,1.665,24.884,5.453,34.467,11.085c11.774,6.921,18.668,15.82,19.706,25.28H153.658z M63.717,18.89 C48.666,26.614,38.763,37.864,37.603,50.5H17.202C19.27,37.251,37.617,25.522,63.717,18.89z M17.202,55.5h20.401 c1.161,12.635,11.063,23.885,26.115,31.609C37.617,80.477,19.27,68.748,17.202,55.5z M160.284,87.109 c15.051-7.725,24.952-18.975,26.113-31.609h20.399C204.729,68.748,186.383,80.477,160.284,87.109z M141.595,66.023 c-1.515-5.871-6.84-10.229-13.178-10.229c-0.798,0-1.576,0.082-2.337,0.215c0.207-0.973,0.32-1.977,0.32-3.009 c0-1.033-0.113-2.039-0.32-3.01c0.761,0.133,1.539,0.215,2.337,0.215c6.338,0,11.663-4.356,13.178-10.228 c1.756,3.985,2.738,8.388,2.738,13.023C144.333,57.635,143.351,62.037,141.595,66.023z M136.54,36.583 c0,4.479-3.644,8.123-8.123,8.123s-8.123-3.644-8.123-8.123s3.644-8.123,8.123-8.123S136.54,32.104,136.54,36.583z M128.417,61.295 c4.479,0,8.123,3.643,8.123,8.123c0,4.479-3.644,8.123-8.123,8.123s-8.123-3.645-8.123-8.123 C120.294,64.938,123.938,61.295,128.417,61.295z M125.023,23.405c-5.872,1.514-10.229,6.839-10.229,13.178 c0,0.798,0.083,1.576,0.215,2.337c-0.971-0.207-1.976-0.32-3.009-0.32c-1.032,0-2.037,0.113-3.009,0.32 c0.132-0.761,0.216-1.538,0.216-2.336c0-6.338-4.358-11.664-10.23-13.178c3.984-1.756,8.389-2.739,13.023-2.739 S121.038,21.649,125.023,23.405z M117.04,53c0,2.783-2.257,5.041-5.04,5.041s-5.039-2.258-5.039-5.041 c0-2.784,2.256-5.04,5.039-5.04S117.04,50.216,117.04,53z M87.461,69.418c0-4.479,3.644-8.123,8.123-8.123 c4.479,0,8.123,3.645,8.123,8.123s-3.645,8.123-8.123,8.123C91.104,77.541,87.461,73.896,87.461,69.418z M95.584,44.707 c-4.479,0-8.123-3.644-8.123-8.123s3.644-8.123,8.123-8.123c4.479,0,8.123,3.644,8.123,8.123S100.063,44.707,95.584,44.707z  M82.406,39.977c1.514,5.873,6.839,10.23,13.178,10.23c0.797,0,1.574-0.083,2.336-0.216c-0.207,0.972-0.32,1.977-0.32,3.01 c0,1.033,0.113,2.039,0.32,3.009c-0.761-0.131-1.539-0.215-2.336-0.215c-6.338,0-11.664,4.357-13.178,10.229 c-1.757-3.984-2.739-8.389-2.739-13.023C79.667,48.365,80.649,43.962,82.406,39.977z M98.978,82.596 c5.872-1.514,10.229-6.84,10.229-13.178c0-0.799-0.084-1.576-0.216-2.338c0.971,0.207,1.976,0.32,3.009,0.32 s2.038-0.113,3.009-0.32c-0.132,0.762-0.215,1.539-0.215,2.338c0,6.338,4.357,11.662,10.229,13.178 c-3.985,1.756-8.388,2.738-13.022,2.738S102.963,84.352,98.978,82.596z"
     id="path4" />
</svg>
